<svg xmlns="http://www.w3.org/2000/svg" viewBox="0 0 146.39 146.39"><title>Asset 50</title><g id="Layer_2" data-name="Layer 2"><g id="Layer_1-2" data-name="Layer 1"><rect width="146.39" height="146.39" rx="21.02" style="fill:#5cbbec"/><rect x="65.36" y="2.02" width="15.67" height="146.39" transform="translate(-2.02 148.41) rotate(-90)" style="fill:#82e1ff"/><path d="M106.47,49.82a21.29,21.29,0,0,0-15.82-6.88,19.87,19.87,0,0,0-12.43,4.29,25.63,25.63,0,0,0-5,5.24,25.33,25.33,0,0,0-5-5.24,19.87,19.87,0,0,0-12.43-4.29,21.29,21.29,0,0,0-15.82,6.88,24.76,24.76,0,0,0-6.27,16.89c0,6.69,2.49,12.81,7.84,19.27,4.79,5.77,11.67,11.64,19.64,18.43,2.72,2.32,5.8,5,9,7.75a4.66,4.66,0,0,0,6.11,0c3.2-2.8,6.29-5.43,9-7.75,8-6.79,14.85-12.66,19.64-18.43,5.35-6.46,7.84-12.58,7.84-19.27A24.76,24.76,0,0,0,106.47,49.82Z" style="fill:#fff"/></g></g></svg>