<svg xmlns="http://www.w3.org/2000/svg" viewBox="0 0 214.5 224.34"><title>Asset 49</title><g id="Layer_2" data-name="Layer 2"><g id="Layer_1-2" data-name="Layer 1"><rect width="214.5" height="224.34" rx="27.85" style="fill:#5cbbec"/><path d="M82.83,34.51H46.58A18.28,18.28,0,0,0,28.32,52.77V89a18.28,18.28,0,0,0,18.26,18.25H82.83A18.27,18.27,0,0,0,101.08,89V52.77A18.28,18.28,0,0,0,82.83,34.51ZM88.75,89a5.93,5.93,0,0,1-5.92,5.92H46.58A5.93,5.93,0,0,1,40.66,89V52.77a5.92,5.92,0,0,1,5.92-5.92H82.83a5.93,5.93,0,0,1,5.92,5.92Z" style="fill:#fff"/><path d="M167.68,34.51H131.91A18.52,18.52,0,0,0,113.41,53V88.77a18.52,18.52,0,0,0,18.5,18.5h35.77a18.51,18.51,0,0,0,18.49-18.5V53A18.51,18.51,0,0,0,167.68,34.51Z" style="fill:#82e1ff"/><path d="M82.83,119.6H46.58a18.28,18.28,0,0,0-18.26,18.26v36.25a18.28,18.28,0,0,0,18.26,18.25H82.83a18.27,18.27,0,0,0,18.25-18.25V137.86A18.28,18.28,0,0,0,82.83,119.6Zm5.92,54.51A5.93,5.93,0,0,1,82.83,180H46.58a5.93,5.93,0,0,1-5.92-5.92V137.86a5.92,5.92,0,0,1,5.92-5.92H82.83a5.93,5.93,0,0,1,5.92,5.92Z" style="fill:#fff"/><path d="M167.68,119.6H131.91a18.52,18.52,0,0,0-18.5,18.5v35.77a18.51,18.51,0,0,0,18.5,18.49h35.77a18.51,18.51,0,0,0,18.49-18.49V138.1A18.51,18.51,0,0,0,167.68,119.6Zm6.16,54.27a6.16,6.16,0,0,1-6.16,6.16H131.91a6.16,6.16,0,0,1-6.16-6.16V138.1a6.16,6.16,0,0,1,6.16-6.16h35.77a6.16,6.16,0,0,1,6.16,6.16Z" style="fill:#fff"/></g></g></svg>