<svg xmlns="http://www.w3.org/2000/svg" viewBox="0 0 185.54 194.06"><title>Asset 48</title><g id="Layer_2" data-name="Layer 2"><g id="Layer_1-2" data-name="Layer 1"><rect width="185.54" height="194.06" rx="27.85" style="fill:#5cbbec"/><path d="M170.06,92.88c1-.54,1-.54,2-2.5Z" style="fill:#82e1ff"/><path d="M81.06,41.26c-1.61-1.29-3.9-.95-5.09-2.88C76.26,42,78.68,41.7,81.06,41.26Z" style="fill:#82e1ff"/><path d="M159.17,71c.13,1.91-3.29,1.34-2.41,4.6C158.16,73.89,160.19,73.34,159.17,71Z" style="fill:#82e1ff"/><path d="M66.19,109.41c-.7,0-1.59.06-1.28,1a2.5,2.5,0,0,0,1.41,1.44c.94.28.84-.8,1.17-1.27C67.59,109.61,66.94,109.42,66.19,109.41Z" style="fill:#82e1ff"/><path d="M153.75,99c-.13-.09-.46.07-.77.13-.14,1-.27,2.08-.48,3.71C154.15,101.47,156.31,100.92,153.75,99Z" style="fill:#82e1ff"/><polygon points="152.86 70.22 152.86 70.22 152.86 70.22 152.86 70.22" style="fill:#82e1ff"/><path d="M155.78,85.86A35.33,35.33,0,0,0,152,87.23h0l-.9-.83h0c-.16-.91-.89-1.33-1.56-1.79h0a6,6,0,0,0-.28-.7h0c1.65-2.4.17-5.21,1-7.72,3.37.09,2.39-2.4,2.53-4.22l0,0h0v0c1.13-.06,2.31.34,3.69-.54l-3.69-1.11v0l-.05,0c-.85-1.13-2.75-1.48-2.51-3.41h.82c.69.24,1.65,1.1,2-.07.43-1.5-.82-1.67-2-1.67h0a4.17,4.17,0,0,0,.08-.59c.3-.31,1.8-.44.27-1a9.35,9.35,0,0,0-2.91-.11h0c0-.3,0-.6-.07-.9h0c.32-.75,1-1.38.75-2.32h0c.23-.65.81-1.43.63-1.92-.62-1.64,2.76-3.26.63-4-1.22-.44-2.26,2.51-2.7,4.34h0c-.87-2-3.48.05-4.37-1.9-.47-.92-1.76-1.31-1.71-2.58.27-1,1.87-1.53,1.42-2.71s-1.39,0-2.11-.06h0c-.73-.81-1.73-.63-2.66-.7.57-2.81-.86-4.29-3.38-5h0c0-.56,0-1.12,0-1.68.23-1.63-1.18-.5-1.63-1h0a1.91,1.91,0,0,0-.92-1.8h0c-.77-2.13-2.36.06-3.39-.64h0a2.76,2.76,0,0,0-.64,0h0l-4.5-3.2c.69-1.35.43-2.56-.62-3.92-.4.94-.73,1.7-1.06,2.45h0A3.94,3.94,0,0,0,118,34.6c-1.2-1.29-2.73-1.1-4.26-1-.27,0-.55,0-.82-.09-.89-1-1.78-.89-2.66,0h0c-1.14-2.87-1.82-.65-2.62.24-.67-.08-1.32-.08-1.61.71l-1.77,0h0c-.66-1.21-1.31-2.42-2.16-4-.42,1.81-.43,3,.46,4.12a3.26,3.26,0,0,0,.13.82h0c-2.52,2-5.69.91-8.46,1.72,0-.68,0-1.37-.1-2-.16-1.24-1-1.54-2.09-1.37-.34.05-.89.43-.89.65,0,1.64,1,1.12,1.9.79l.27,1.94h0L91.7,38c-2.11-.7-3.78-.49-4.31,2.08-.1.27-.21.55-.29.81-.94,1.17-3.6,2.09-.37,3.85h0c-.12.27-.23.53-.35.79-1.1.26-2.51-.56-3.28.92a5,5,0,0,1-1.63-1.05c-1.91-1.86-1.63.4-1.66,1.14-.07,1.91,1.5,1.51,2.66,1.61h0l-.34,1.65-1.49.94s-.1,0-.15.11l-.73.58h0a2.93,2.93,0,0,0-1.74,2h0l-1.63.77h0c-2,1.8-2.58,3.35.76,4.19,0,.7.1,1.39.84,1.76l.75,3.25c-2.28,1.3-2.25,2.52.13,3.66h0l0,3.25,0,.86c-1.24.13-2.26-1.16-3.76-.46,1.15,1.51.94,3.72,2.83,4.77,0,.52.07,1,.1,1.54-1.05.24-3-.81-2.52,1.68l-.06,1h0c-.93.42-1.26,1.78-2.53,1.68-.17-1.73-1.88-1.32-2.83-2.69.11,2,.18,3.2.26,4.44h0l-.84,2.51c-1.86.23-2.07,1.39-1.1,2.57,1.31,1.59,1.06,3.33,1.08,5.09h0c-2.35.73-1.3,2.64-1.88,4.16,1.89.11,2.55-1.3,3.73-1.7h0c1,.81.86,2.45,2.28,2.89h0a1.3,1.3,0,0,1,0,.52h0c-2.43,2-2,3.4.94,4.2h0c-.47,1.23-.41,2.26,1.1,2.7h0a2.94,2.94,0,0,0,.69,2.51c-.14,3.55,2.57,2.18,4.3,2.5l-.1.19c.31.56.62.5.93,0h0l1.93,1.53h0c.27,1.16-2.46,1.06-1.11,2.66h0a1.81,1.81,0,0,0,1.73.76c1.12.21,2.24.76,3.37,0h0l.82.89a3.91,3.91,0,0,0,.07.76h0c0,.58,0,1.16,0,1.75h0c-.06,1.17.57,1.66,1.67,1.69.7,2.32.7,2.32,3,2.24l-1.38-1.45h0c.81-1.39,3.44,0,3.6-2.37h0c1.47.59,1.81,3.3,4.17,2.25l4.34,1c0,1.2-.34,3,1.43,2.74s.51-1.75.17-2.72h0l.29-1.57,1.17.71c1.8,2,1.68,4,.09,6.08-.68.88-1.53,1.63-1.6,2.87-.27,5.49-.58,11-.86,16.45,0,.85-.07,1.77,1,2a1.74,1.74,0,0,0,2-1.18,23.17,23.17,0,0,0,1.19-4.88c.53-5.4.2-11,4.48-15.33.52-.29,1-.58,1.57-.86h1.71c2.33-.26,1.56-2,1.61-3.36l-.12.25c0-.08.07-.17.12-.25h0l1.79-.89c2.13.47,2.09,2.38,1,3-4.1,2.39.08,2.17.8,3,.07,3-.46,6.09.32,8.85,1.83,6.48-2.4,13,.39,19.39.33.75-.2,1.91-.4,2.87a24,24,0,0,0,0,9.25c.23,1.21,1.17,2.54,2.66,2.08,1.19-.38,1.48-1.69.88-2.87a4.9,4.9,0,0,1,.18-4.13c2.26-5.83,1.68-12.27,1.2-17.85-.78-9.08-.47-18-.13-27,2.31-1.71-.17-4.09.85-6h0c.7-.07,1.33-.26,1.54-1,.45-.85,1.54-1.67.12-2.6h0c.75-1.35,2-1.57,3.35-1.46h0l.64.09h0c.92,1.08,1.84.73,2.77,0a3.05,3.05,0,0,0,3.32-.16c.79.27.9,1.74,1.9,1.35,1.26-.49.63-1.66.44-2.56a7.24,7.24,0,0,0-.7-1.53h0l1.13-1.42c.82-.32,2.78.45,1.66-1.73h0c0-.27,0-.53,0-.8l3.18-2.62h0c1.44-.11,3.21.52,3.66-1.7h0l.31,0h.3c1.25.21,2.38.2,2.54-1.47h0c-.48-1.24,0-2.44.14-3.65h0a1.54,1.54,0,0,0,1.72-1.56h0l1.68-3.54C157.68,85.82,156.76,85.61,155.78,85.86Zm-86.26-.32Zm0,7.66.37-.53A.9.9,0,0,1,69.5,93.2Zm9.32-7.66ZM79,101c0-.06-.07-.1-.1-.16l.44-.15A1.51,1.51,0,0,1,79,101Zm5.32-30h0Zm6.45,42.18H90V113a2.67,2.67,0,0,0,.84.17S90.78,113.21,90.78,113.23Zm6.79-3v0s0,0,0,0ZM116.28,105v0h0l0,0Zm4.29,8.46v0h0l0,0Zm11.86-12.41h0v0l.07,0a.06.06,0,0,0,0,0Zm14.42-14.56v-.07l.06,0A.1.1,0,0,0,146.85,86.52Zm.77,6.6.11-.07,0,.07Z" style="fill:#82e1ff"/><path d="M78.78,120.75c-1.29.31-1.78,1.09-1.25,2.66,1-.55,1.93-1,1.85-2.3C79.38,121,79,120.71,78.78,120.75Z" style="fill:#82e1ff"/><path d="M66.32,62.51a1.19,1.19,0,0,0,.17,1.05c1,.3,1.81-.08,3.39-1C68.23,62.33,67.26,61.48,66.32,62.51Z" style="fill:#82e1ff"/><path d="M132.08,114.2c.45-1.28,1.86-2.12-.86-4.31C132.08,111.82,130.35,112.83,132.08,114.2Z" style="fill:#82e1ff"/><path d="M67.55,56.91a6,6,0,0,0-1.7-.23c-.57.16-2.2-.51-1.36,1C65.13,58.81,66.2,57.83,67.55,56.91Z" style="fill:#82e1ff"/><path d="M155.59,108.14l4.08,2.81C159,108.73,157.94,108.35,155.59,108.14Z" style="fill:#82e1ff"/><path d="M98.82,126.75h3.58C101.05,125.2,100,125.16,98.82,126.75Z" style="fill:#82e1ff"/><path d="M134.61,126.84c-.42.53,0,1.07.68.93a13.44,13.44,0,0,0,2.33-1.11c-.63-.34-1-.73-1.3-.66A3.22,3.22,0,0,0,134.61,126.84Z" style="fill:#82e1ff"/><path d="M157.54,80.93c1.32-1,.62-1.89.61-3.42C156.73,79,157,79.87,157.54,80.93Z" style="fill:#82e1ff"/><path d="M152.7,80.86c-.17.49-.41,1.17.51,1,.44-.1.77-.63,1.24-1-.31-.37-.49-.8-.77-.86C153,79.74,152.86,80.39,152.7,80.86Z" style="fill:#82e1ff"/><path d="M166.43,95.33a1.06,1.06,0,0,0-.67.75c-.08.55.16,1.12.86.94.26-.07.4-.59.66-1C167,95.73,166.66,95.31,166.43,95.33Z" style="fill:#82e1ff"/><path d="M127,31.75a3.62,3.62,0,0,0-1.68-1c-.19-.06-.57.41-1.17.87.94.27,1.55.43,2.15.63S127.25,32.12,127,31.75Z" style="fill:#82e1ff"/><path d="M138.4,115.24a2.86,2.86,0,0,0,1.3-3.07A3.06,3.06,0,0,0,138.4,115.24Z" style="fill:#82e1ff"/><path d="M131,34.77c.16-.29.48-.6.45-.87s-.39-.56-.75-1c-.24.53-.54.88-.47,1.11S130.7,34.51,131,34.77Z" style="fill:#82e1ff"/><path d="M134.09,133c-.55-.34-.71.18-.68.53a1.34,1.34,0,0,0,.49.94c.43.24.7-.09.79-.66C134.53,133.53,134.38,133.13,134.09,133Z" style="fill:#82e1ff"/><path d="M73.12,125.8a.51.51,0,0,0-.66.67,1.32,1.32,0,0,0,.87.61c.38.09.78,0,.67-.73A3.37,3.37,0,0,0,73.12,125.8Z" style="fill:#82e1ff"/><path d="M75,66.58a4.82,4.82,0,0,0,1.13-.81c.09-.65,0-1.09-.55-.85a2.76,2.76,0,0,0-1.14,1C74.08,66.48,74.56,66.73,75,66.58Z" style="fill:#82e1ff"/><path d="M132.32,121a8.36,8.36,0,0,0-1,.66c.23.31.43.83.7.87.62.09.94-.41,1.13-1C133.07,121.06,132.83,120.78,132.32,121Z" style="fill:#82e1ff"/><path d="M164,70.86a1.39,1.39,0,0,0-.66.91c-.08.5.31.61.77.45s1.21-.26.86-1A1,1,0,0,0,164,70.86Z" style="fill:#82e1ff"/><path d="M137.2,116.87c.05.41.18.92.63.66.88-.5.43-1.44.53-2.21C137.21,115.24,137.07,115.93,137.2,116.87Z" style="fill:#82e1ff"/><path d="M138.36,115.32s0,0,0,0l0,0,0,0a.19.19,0,0,1,0-.08l0,0Z" style="fill:#82e1ff"/><path d="M144.55,49.45c.42-.15.67-.76.95-1.11-.15-.34-.24-.73-.34-.74-.74,0-.8.62-1,1.1S144.05,49.63,144.55,49.45Z" style="fill:#82e1ff"/><path d="M79.08,37.77c.25,0,.58-.29.87-.45-.22-.3-.45-.59-.76-1l-.85.75C78.58,37.32,78.8,37.72,79.08,37.77Z" style="fill:#82e1ff"/><path d="M70.17,35.94s.29-.28.54-.53a5.57,5.57,0,0,0-1.2-1.09c-.57-.3-.8.22-.56.61A3.93,3.93,0,0,0,70.17,35.94Z" style="fill:#82e1ff"/><path d="M161.05,101.23c-.32-.23-.86-.2-.77.37.05.35.43.69.73,1s.68.5,1.07-.27A6.82,6.82,0,0,0,161.05,101.23Z" style="fill:#82e1ff"/><path d="M139.83,43.42c.31-1.16.11-1.76-.48-2.18a.8.8,0,0,0-.63.06C138.59,42.16,139,42.77,139.83,43.42Z" style="fill:#82e1ff"/><path d="M63.38,124.73c0-1.57-.56-3.07-.28-4.72a14.15,14.15,0,0,0-7.36-15.24c-1.84-1-3.56-2.52-5.91-2.25-.82-.4.13-2.06-1.18-1.91-.8.09-1.09,1.07-1.11,1.93l-.88.11-.93-1.42a4,4,0,0,0,.75-.73.24.24,0,0,0-.34-.32c-.41.23-1.25.15-.89,1h0c.22.93-.43,1.51-.89,2.17a.73.73,0,0,1-.9.09c-.1-.43.24-1.26-.52-1.11s-.28,1-.4,1.52a17.92,17.92,0,0,0-5.1,5.71c-1.28,2-.34,4.36-1.47,6.29s-.55,3.63.36,5.35a16.78,16.78,0,0,1,2,7.53c.06,9,1,17.95.81,26.95a8.16,8.16,0,0,0,.56,2.64,1.32,1.32,0,0,0,1.53,1.06c1-.17.85-.94.81-1.6s-.29-1.19-.3-1.78c-.13-8.21-.23-16.42-.35-24.62a1,1,0,0,1,.64-1c1.84,3.27,5.53,5.44,5,10.14-.34,3.17.39,6.45.33,9.68,0,1-.17,1.75.75,2.28.37.21.8.64,1.23.31.91-.67.53-1.64.42-2.51a44.93,44.93,0,0,1-.1-12.42c.06-.44-.14-1.13.8-1.13a27.78,27.78,0,0,1,.62,7.6c-.17,5.27,1.4,10.68-1.31,15.75a1.08,1.08,0,0,0,.21,1.27.82.82,0,0,0,1.05,0c1.38-1,2.95-2,2.81-3.95-.4-5.73,0-11.44.05-17.16,0-2.31.23-4.29,2.44-5.59a5.22,5.22,0,0,0,1.36-1.51c.69-1,.63-3.09,2.14-2.72s.58,2.27.68,3.45a164.24,164.24,0,0,1,0,24.4c-.17,2.65-1,5.19-1.28,7.81a1.41,1.41,0,0,0,1.07,1.73c.79.23,1.13-.3,1.2-1,.32-2.69,1.15-5.31,1.45-8C64.29,147.58,63.68,136.15,63.38,124.73Z" style="fill:#fff"/><path d="M34.66,111.83c.18-.7.75-1.37-.29-2.35C34.41,110.48,33.78,111.19,34.66,111.83Z" style="fill:#fff"/><path d="M34.59,104c0-.07-.13-.35-.16-.34-.35.07-.68.19-1.48.43C33.87,104.44,34.31,104.54,34.59,104Z" style="fill:#fff"/><path d="M36.92,106.64c-.16-.08-.36-.26-.49-.22s-.26.28-.39.44l.56.3Z" style="fill:#fff"/><path d="M49.2,98.84a3.28,3.28,0,0,0,.32-.9c0-.26-.3-.26-.47-.13a.76.76,0,0,0-.31.5C48.74,98.46,49,98.6,49.2,98.84Z" style="fill:#fff"/><path d="M43.5,100.94a.23.23,0,0,0,.22-.39,2.47,2.47,0,0,0-.66-.41c-.36,0-.44.24-.29.39A1.44,1.44,0,0,0,43.5,100.94Z" style="fill:#fff"/></g></g></svg>