<svg xmlns="http://www.w3.org/2000/svg" viewBox="0 0 279.86 279.86"><title>Asset 47</title><g id="Layer_2" data-name="Layer 2"><g id="Layer_1-2" data-name="Layer 1"><rect width="279.86" height="279.86" rx="27.85" style="fill:#5cbbec"/><path d="M193.5,122h48.4c1.86,0,2.1.15,2.39,2,.42,2.72.84,5.43,1.15,8.16a95,95,0,0,1,.71,16.85c-.36,5.41-.51,10.85-1.7,16.18-.27,1.23-.13,2.54-.41,3.76-.62,2.78-1.38,5.52-2.1,8.28-.47,1.8-.92,3.61-1.49,5.39-.63,2-1.38,3.94-2.11,5.9-.48,1.29-1,2.57-1.53,3.81-1,2.22-2,4.45-3.08,6.62a63.2,63.2,0,0,1-3.14,5.55c-1.86,2.87-3.76,5.72-5.78,8.48a65.31,65.31,0,0,1-5.24,6.36c-3,3.17-6.11,6.31-9.39,9.21a76.81,76.81,0,0,1-8.05,6c-2.3,1.54-4.78,2.84-7.2,4.2-2,1.09-3.92,2.17-5.94,3.14-1.4.67-2.89,1.15-4.36,1.7s-2.83,1.07-4.27,1.54c-2.38.77-4.76,1.54-7.17,2.21-2.57.71-5.16,1.33-7.75,2-.74.18-1.51.23-2.26.38-9.19,1.88-18.5,1.59-27.79,1.44a45.73,45.73,0,0,1-10.71-1.18c-2.87-.74-5.86-1-8.79-1.57a9.62,9.62,0,0,1-1.62-.54c-.32-.12-.62-.32-.94-.42-3.21-.94-6.46-1.73-9.61-2.83-2.39-.84-4.64-2.06-7-3.12-1-.45-1.94-.88-2.88-1.37-2.67-1.38-5.37-2.72-8-4.2-1.51-.86-2.89-2-4.33-3s-2.94-1.93-4.31-3c-2.69-2.13-5.43-4.22-7.94-6.55-3.25-3-6.37-6.25-9.4-9.52a66,66,0,0,1-5.12-6.44c-1.93-2.7-3.75-5.47-5.5-8.28-1.52-2.45-2.93-5-4.3-7.52-.58-1.06-.91-2.25-1.39-3.36-.75-1.75-1.59-3.46-2.3-5.22-.61-1.51-1.1-3.08-1.62-4.62-.67-2-1.43-4-2-6-.73-2.8-1.33-5.64-1.89-8.48-.64-3.25-1.28-6.52-1.72-9.8a56.32,56.32,0,0,1-.56-7.78c0-4.9.1-9.8.48-14.68.26-3.34,1.08-6.63,1.63-9.94.19-1.09.19-2.22.47-3.29.61-2.35,1.33-4.68,2-7,.42-1.39.94-2.74,1.32-4.14a70.78,70.78,0,0,1,4.8-11.81c.44-.92.59-2,1.09-2.85,2-3.56,4-7.16,6.26-10.59a96.63,96.63,0,0,1,6.69-9.25c2.42-2.91,5.15-5.59,7.85-8.27,2.31-2.31,4.69-4.57,7.21-6.65s5-3.71,7.56-5.52c1.45-1,2.9-2.09,4.42-3,1.79-1.09,3.65-2,5.48-3.06,1.2-.65,2.4-1.31,3.61-1.93a29.92,29.92,0,0,1,3-1.44c2.5-1,5-1.95,7.55-2.91,1.66-.63,3.34-1.23,5-1.85a1.69,1.69,0,0,1,.31-.13c2.22-.55,4.43-1.13,6.65-1.62,3.17-.69,6.35-1.34,9.54-1.93a27.36,27.36,0,0,1,4.32-.5c6-.13,12-.25,17.92-.26a50,50,0,0,1,7.44.48c3.28.47,6.52,1.23,9.78,1.87l.67.14c2.45.56,4.92,1,7.33,1.71,1.75.5,3.4,1.31,5.1,2,1.38.53,2.8,1,4.16,1.53,1.57.65,3.1,1.39,4.65,2.1l3,1.4A72,72,0,0,1,202.62,52c2.39,1.76,4.82,3.47,7.17,5.3a51.54,51.54,0,0,1,4.44,3.93,2,2,0,0,1,.15,1.62c-.11.43-.59.77-.94,1.12L185.4,92c-1.3,1.3-2.08,1.31-3.41.06a40.06,40.06,0,0,0-8.2-6.17c-2.39-1.3-4.83-2.53-7.26-3.76A49.41,49.41,0,0,0,155,78.43c-6.06-1.36-12.17-1.26-18.28-.89a69.38,69.38,0,0,0-9.39,1.34,42.41,42.41,0,0,0-5.71,1.89c-1.21.43-2.38,1-3.6,1.4a46.06,46.06,0,0,0-7.3,3.65A58.9,58.9,0,0,0,97,96.44a63.66,63.66,0,0,0-6.15,7.25,69.81,69.81,0,0,0-4.26,7c-1.09,1.91-2.09,3.88-3.07,5.85-.5,1-.91,2.09-1.31,3.15-.64,1.74-1.35,3.47-1.83,5.25-.74,2.72-1.35,5.48-1.93,8.25a18.4,18.4,0,0,0-.45,4c.06,4.74,0,9.5.44,14.21a65.28,65.28,0,0,0,2.23,10.17,35.36,35.36,0,0,0,1.94,4.6c.5,1.15,1,2.29,1.46,3.46a53.41,53.41,0,0,0,7.72,13,57.18,57.18,0,0,0,11.61,11.64c1.92,1.39,3.74,2.92,5.73,4.17a56.87,56.87,0,0,0,5.94,3.12c2.29,1.09,4.63,2.07,7,3.1a3.2,3.2,0,0,0,.43.17c5.91,1.54,11.81,3.12,18,2.86,4.09-.17,8.2-.13,12.27-.53a59.61,59.61,0,0,0,8.16-1.74c2-.5,4.05-1.05,6-1.71a36.29,36.29,0,0,0,4-1.72c1.07-.51,2.09-1.1,3.15-1.61a47.35,47.35,0,0,0,16.75-13.79,54.13,54.13,0,0,0,5-7.66,55.67,55.67,0,0,0,3-7.48c.61-1.68,1.05-3.42,1.57-5.13s.1-2.33-1.75-2.33h-54c-2.34,0-2.62-.26-2.62-2.64q0-18.23,0-36.44c0-2.55.43-3,3-3Z" style="fill:#82e1ff"/></g></g></svg>