<svg xmlns="http://www.w3.org/2000/svg" viewBox="0 0 279.86 279.86"><title>bio-image</title><g id="Layer_2" data-name="Layer 2"><g id="Layer_1-2" data-name="Layer 1"><rect width="279.86" height="279.86" rx="27.85" style="fill:#ff0d86"/><path d="M215.69,190.9h0v12.65c-.18,6.36-3.34,9.57-9.64,9.68-3.57.06-7.14,0-10.7,0-5.12,0-9.86.74-14.23,3.95-5,3.67-8.62,8-10.13,14.12-.95,3.84-.54,7.74-.57,11.61,0,3.7,1.89,5.75,5.08,5.79s5.2-2,5.33-5.63c.07-2.05,0-4.1,0-6.16.11-7.42,4.94-12.29,12.42-12.46,2.92-.07,5.84,0,8.76,0,1.19,0,2.38,0,3.57,0,12.52.22,20.22-8.35,20.56-20.5a178.59,178.59,0,0,0-.07-18.8c-.44-5.79,1.23-10.1,5.68-13.88,4.76-4,5.82-9.56,4.54-15.65-3.39-16.15-7-32.27-9.93-48.51-3.71-20.58-12.37-38.73-27-53.51C177.87,31.77,151.09,24,121.09,28.39c-21,3.06-38.54,13-53.17,28.84-35.16,38.08-32.82,98,5.81,132.56a106.05,106.05,0,0,0,9.7,7.57c2.73,1.91,5.77,1.31,7.45-1.08s1.23-5.33-1.33-7.44c-.58-.48-1.22-.89-1.82-1.34-18.09-13.4-29.53-30.95-32.95-53.36-5.12-33.49,6.91-60.44,33.05-80.78C118,29.87,164.31,33,191,60.28c11.37,11.67,19.66,24.9,23.18,40.82,4.2,19.07,8,38.22,12,57.33a5.44,5.44,0,0,1-1.62,5.33c-1.32,1.27-2.59,2.6-3.9,3.89a15.72,15.72,0,0,0-5,11.58C215.68,183.12,215.69,187,215.69,190.9Z" style="fill:#dd3187"/><path d="M170.4,279.86V241.53c-.05-3.42-.26-6.84.57-10.22,1.51-6.08,5.11-10.45,10.13-14.12,4.37-3.21,9.11-4,14.23-3.95,3.56,0,7.13,0,10.7,0,6.3-.11,9.46-3.32,9.64-9.68V190.9h0c0-3.89,0-7.78,0-11.67a15.72,15.72,0,0,1,5-11.58c1.31-1.29,2.58-2.62,3.9-3.89a5.44,5.44,0,0,0,1.62-5.33c-4-19.11-7.83-38.26-12-57.33C210.62,85.18,202.33,72,191,60.28,164.31,33,118,29.87,87.83,53.36c-26.14,20.34-38.17,47.29-33,80.78,3.42,22.41,14.86,40,33,53.36.6.45,1.24.86,1.82,1.34,2.56,2.11,3.06,4.95,1.33,7.44s-4.72,3-7.45,1.08a106.05,106.05,0,0,1-9.7-7.57c-38.63-34.52-41-94.48-5.81-132.56,14.63-15.84,32.14-25.78,53.17-28.84,30-4.36,56.78,3.38,78.32,25.2,14.58,14.78,23.24,32.93,27,53.51,2.93,16.24,6.54,32.36,9.93,48.51,1.28,6.09.22,11.6-4.54,15.65-4.45,3.78-6.12,8.09-5.68,13.88a178.59,178.59,0,0,1,.07,18.8c-.34,12.15-8,20.72-20.56,20.5-1.19,0-2.38,0-3.57,0-2.92,0-5.84-.05-8.76,0-7.48.17-12.31,5-12.42,12.46,0,1.49,0,3,0,4.48,0,.56,0,37.9,0,38.46" style="fill:#fff"/><path d="M134.35,249.31c-9.1,0-15.74-6.55-15.77-15.68q0-18.31,0-36.63c0-6.49,2.78-11.47,8.61-14.45a2.82,2.82,0,0,0,1.79-3c-.06-2.7-.13-5.41,0-8.1.11-1.92-.6-2.45-2.47-2.84-17.77-3.76-30.71-13.76-37-30.92-11-30,7.13-61.47,38.69-66.08A48.33,48.33,0,0,1,183.26,112c4.23,27.53-13.18,52.77-41.53,56.81-1.78.26-2.47,1-2.36,2.7a18.45,18.45,0,0,1,0,3.24c-.43,4.17.19,7.32,4.55,9.74,4.08,2.26,5.85,6.8,5.86,11.65,0,12.64.06,25.29,0,37.93A15,15,0,0,1,134.35,249.31ZM97.08,119.8c-.15,23,17.51,38.84,38.13,39.16,21.27.33,38.48-17.28,38.51-38.89a38.25,38.25,0,0,0-38.31-38.28C113.84,81.6,96.46,99.38,97.08,119.8Zm42.29,95.07c0-5.93,0-11.86,0-17.8,0-3.7-1.8-5.64-5.09-5.67S129,193.35,129,197q-.08,18,0,35.93c0,3.84,2.1,6,5.31,6s5-2.27,5.07-6.18C139.4,226.74,139.37,220.81,139.37,214.87Z" style="fill:#ff69b4"/></g></g></svg>