<svg xmlns="http://www.w3.org/2000/svg" viewBox="0 0 384.85 384.81"><title>design-image</title><g id="Layer_2" data-name="Layer 2"><g id="Layer_1-2" data-name="Layer 1"><rect width="384.81" height="384.81" rx="27.85" style="fill:#ff0d86"/><path d="M115.5,280.15l-.6.06c-1.38-.54-2.28.22-3.16,1.11-1.78,1.78-3.61,3.51-5.33,5.34-2.5,2.67-7.43,2.58-9.5.56-2.8-2.73-2.82-6.94.19-10.1a37.18,37.18,0,0,1,4.05-4c2.12-1.64,2.62-3.95,2.82-6.29.44-5.08,1.42-10.08,2-15.13.73-6,1.73-11.89,2.54-17.85.32-2.34.65-4.7,1-7.05.49-3.35,1.11-6.69,1.45-10.06a7.84,7.84,0,0,1,2.25-5.18c1.85-1.79,3.65-3.64,5.47-5.46Q184.28,140.56,249.84,75c2.57-2.56,4.67-5.79,8.47-6.86a9,9,0,0,1,3.87.58c2.22.67,4.49,1.18,6.65,2A77.74,77.74,0,0,1,296.31,89.1a76.58,76.58,0,0,1,10.95,14.31,79.8,79.8,0,0,1,5.64,11.29c.74,1.85,1.08,3.81,1.77,5.64,1.33,3.56,1.1,6.56-1.75,9.4q-52.29,52.14-104.47,104.4l-35.22,35.23c-1.24,1.24-2.58,2.49-4.34,2.77-2.39.37-4.79.77-7.19,1.11s-4.64.44-6.9,1a90,90,0,0,1-9.06,1.34c-2.92.37-5.88.78-8.78,1.21-5,.75-10,1.32-15,2.23C119.84,279.39,117.61,279.42,115.5,280.15ZM299.76,116.57c-.89-1.87-1.66-3.82-2.7-5.61a61.13,61.13,0,0,0-21.4-21.68,106.68,106.68,0,0,0-11.24-5.69c-2.68-1.24-3-1.15-5.11.93q-10.78,10.8-21.59,21.58-31.29,31.22-62.6,62.42-15,15-29.94,30L133.67,210c-1.24,1.23-1.29,1.37.29,2.13a104,104,0,0,1,10.58,5.62,69.51,69.51,0,0,1,19.15,18,61.67,61.67,0,0,1,7.8,14.25c.36.92,1,.82,1.63.42a5.81,5.81,0,0,0,.95-.91L300.16,123.41C301.63,121.94,299.87,116.8,299.76,116.57ZM119.1,265.62c2.27-.28,4.54-.53,6.8-.88,5.43-.83,10.88-1.51,16.32-2.27s11.06-1.6,16.59-2.37c1.37-.19,1.78-.62,1.32-1.87a58.7,58.7,0,0,0-6.4-12.83,55.91,55.91,0,0,0-21.15-18.68,38.27,38.27,0,0,0-7.24-3c-.74-.21-1.34-.21-1.48.78-.52,3.66-1.08,7.31-1.6,11-.71,5.06-1.36,10.12-2.09,15.17-.66,4.62-1.38,9.23-2.08,13.84C118,265.27,118.24,265.69,119.1,265.62Z" style="fill:#f294cc"/><path d="M312.9,114.7a79.8,79.8,0,0,0-5.64-11.29A76.58,76.58,0,0,0,296.31,89.1a77.74,77.74,0,0,0-27.48-18.36,35.63,35.63,0,0,0-4-1.26c4.85-4.86,11.54-11.83,16.49-16.59a38.21,38.21,0,0,1,9.65-7.32,34.09,34.09,0,0,1,13.87-3.83,38.53,38.53,0,0,1,11.65,1,33.92,33.92,0,0,1,9.82,4.47,36.63,36.63,0,0,1,10.22,10.2,33.57,33.57,0,0,1,5,12.08A31.39,31.39,0,0,1,342,80.38a40.68,40.68,0,0,1-2.9,10.43c-2.2,5-5.72,9-9.59,12.78-4.33,4.22-8.56,8.53-12.82,12.8-.34.34-2.23,2.11-2.55,2.47" style="fill:#f294cc"/><path d="M269.18,314.77H384.81a100.49,100.49,0,0,1-.65,14.37c-60.88,0-145.92,0-206.8,0-2.53,0-5.1-.15-7-2.26a7.08,7.08,0,0,1,4.27-11.93,19.7,19.7,0,0,1,2.77-.14Z" style="fill:#fff"/><path d="M105.7,314.77h22.35a7.59,7.59,0,0,1,6.76,3.28c3.2,4.64-.47,10.32-4.33,10.71a42.43,42.43,0,0,1-4.5.37c-14.07,0-28.15,0-42.22,0-2.47,0-4.84-.43-6.63-2.41a6.94,6.94,0,0,1-1.51-6.94,6.83,6.83,0,0,1,5.83-4.84,13.36,13.36,0,0,1,2.19-.14Z" style="fill:#fff"/></g></g></svg>