<svg xmlns="http://www.w3.org/2000/svg" viewBox="0 0 64.57 80"><title>Asset 1</title><g id="Layer_2" data-name="Layer 2"><g id="arrow_right" data-name="arrow right"><path d="M28.28,4V66.34L6.83,44.89a4,4,0,0,0-5.66,5.66L29.46,78.83h0a4.82,4.82,0,0,0,.6.5l.32.17c.12.06.24.14.37.19a3.38,3.38,0,0,0,.42.13,3.18,3.18,0,0,0,.33.1,4.13,4.13,0,0,0,.78.08h0a4.13,4.13,0,0,0,.78-.08c.12,0,.23-.07.35-.1a3,3,0,0,0,.79-.33c.1-.06.2-.1.29-.16a4.28,4.28,0,0,0,.61-.5L63.4,50.54a4,4,0,0,0-5.66-5.65L36.28,66.34V4a4,4,0,0,0-8,0Z" style="fill:#fff"/></g></g></svg>