<svg xmlns="http://www.w3.org/2000/svg" viewBox="0 0 80 64.57"><title>Asset 1</title><g id="Layer_2" data-name="Layer 2"><g id="arrow_right" data-name="arrow right"><path d="M76,28.28H13.66L35.11,6.83a4,4,0,1,0-5.66-5.66L1.17,29.46h0a4.82,4.82,0,0,0-.5.6l-.17.32c-.06.12-.14.24-.19.37a3.38,3.38,0,0,0-.13.42,3.18,3.18,0,0,0-.1.33,4.13,4.13,0,0,0-.08.78H0a4.13,4.13,0,0,0,.08.78c0,.12.07.23.1.35a3,3,0,0,0,.33.79c.06.1.1.2.16.29a4.28,4.28,0,0,0,.5.61L29.46,63.4a4,4,0,0,0,5.65-5.66L13.66,36.28H76a4,4,0,0,0,0-8Z" style="fill:#fff"/></g></g></svg>