<svg xmlns="http://www.w3.org/2000/svg" viewBox="0 0 114.28 114.28"><title>linkedin-hover</title><g id="Layer_2" data-name="Layer 2"><g id="Layer_1-2" data-name="Layer 1"><g id="linkedin"><path id="iconmonstr-linkedin-3" d="M90.47,0H23.81A23.81,23.81,0,0,0,0,23.81V90.47a23.81,23.81,0,0,0,23.81,23.81H90.47a23.81,23.81,0,0,0,23.81-23.81V23.81A23.81,23.81,0,0,0,90.47,0ZM38.09,90.47H23.81V38.09H38.09ZM31,32.06a8.4,8.4,0,1,1,8.33-8.46v.06A8.36,8.36,0,0,1,31,32.06ZM95.23,90.47H81V63.79c0-16-19.05-14.83-19.05,0V90.47H47.62V38.09H61.9v8.4c6.65-12.32,33.33-13.23,33.33,11.79Z" style="fill:#8bdcf2"/></g></g></g></svg>