<svg xmlns="http://www.w3.org/2000/svg" viewBox="0 0 384.81 384.81"><title>mgmt-image</title><g id="Layer_2" data-name="Layer 2"><g id="Layer_1-2" data-name="Layer 1"><rect width="384.81" height="384.81" rx="27.85" style="fill:#ff0d86"/><path d="M174.09,144c-25.1,0-50.2,0-75.29,0-7.94,0-13.82,3.61-17.45,10.76-1.88,3.7-1.66,7.7-1.67,11.64q-.06,37.65,0,75.3c0,3-.61,5.67-3,7.7a8,8,0,0,1-12.91-4.62,16.42,16.42,0,0,1-.3-3q0-38.88,0-77.76c0-12.38,4.72-22.39,14.74-29.74a32.39,32.39,0,0,1,18.49-6.38c7.85-.23,15.72-.09,23.59-.09q64.83,0,129.66,0c3.28,0,6.06.84,8,3.67a7.89,7.89,0,0,1-5.4,12.34,29.42,29.42,0,0,1-4.09.21Z" style="fill:#ff85c8"/><path d="M160,263.42c0,28.59,0,92.81,0,121.39H143.79c0-57,0-150.11,0-207.15a10,10,0,0,1,1.72-6.38c2.17-2.86,5.17-3.76,9.16-2.73a7.57,7.57,0,0,1,5.19,6.45,32.42,32.42,0,0,1,.13,3.69Q160,221.05,160,263.42Z" style="fill:#ff85c8"/><path d="M154.66,82.4a34.9,34.9,0,1,1-34.75-34.95A34.84,34.84,0,0,1,154.66,82.4ZM101,82.21a18.78,18.78,0,1,0,18.88-18.59A18.64,18.64,0,0,0,101,82.21Z" style="fill:#ff85c8"/><path d="M95.79,304c0,15.11,0,65.69,0,80.8H79.53c0-29.75,0-95.74,0-125.5,0-1.84-.08-3.73.77-5.43,1.76-3.51,5-5.08,9-4.44,3.13.49,5.91,3.6,6.35,7.17a21.36,21.36,0,0,1,.1,2.66Q95.81,281.64,95.79,304Z" style="fill:#ff85c8"/><path d="M111.75,303.5c0-15.59.06-31.19,0-46.79a8.2,8.2,0,0,1,8.89-8.22,8.09,8.09,0,0,1,7.11,6.61,14,14,0,0,1,.13,1.84c0,31.05,0,96.82,0,127.87h-16.1C111.76,369.15,111.75,319.17,111.75,303.5Z" style="fill:#ff85c8"/><path d="M302,288.67h37.13c3.31,0,6,1.27,7.64,4.24,2.23,4.13.15,10.56-4.7,11.53a24,24,0,0,1-4.85.61c-23.66,0-47.32,0-71,0-3.17,0-6.2-.55-8.24-3.55a7.84,7.84,0,0,1-.44-8.69,7.73,7.73,0,0,1,7.1-4.09Z" style="fill:#fff"/><path d="M301.94,197.54c-12.37,0-24.74-.06-37.11,0a8.07,8.07,0,0,1-2.43-15.85,7.18,7.18,0,0,1,2-.19H384.81v16C372.24,197.55,314.51,197.54,301.94,197.54Z" style="fill:#fff"/><path d="M315.35,143.79c-8,0-16,0-24,0a7.8,7.8,0,0,1-8.09-7.68,8.05,8.05,0,0,1,7.82-8.3q24.39-.12,48.8,0c4.09,0,6.86,2.77,7.62,7.16a7.86,7.86,0,0,1-4.74,8.41,7.54,7.54,0,0,1-2.81.4Z" style="fill:#fff"/><path d="M224.71,251.62c-4.7,0-9.06-4.17-9.11-8.7,0-4.08,4.44-8.61,8.53-8.62a9.31,9.31,0,0,1,9,9A8.5,8.5,0,0,1,224.71,251.62Z" style="fill:#fff"/><path d="M224.68,181.51a8.88,8.88,0,0,1,8.5,8.22c.12,4.45-4.51,8.11-7.28,8.09-5.93,0-9.56-3.23-9.55-8.26A8,8,0,0,1,224.68,181.51Z" style="fill:#fff"/><path d="M232.35,297.11c0,4.19-3.52,7.95-7.43,7.95-4.9,0-9.15-3.9-8.93-8.47s3-7.57,8-7.79C228.37,288.62,232.66,292.75,232.35,297.11Z" style="fill:#fff"/><path d="M301.94,250.94c-12.37,0-24.74-.06-37.11,0a8.06,8.06,0,0,1-2.43-15.84,6.84,6.84,0,0,1,2-.2H384.81v16C372.24,251,314.51,250.94,301.94,250.94Z" style="fill:#fff"/></g></g></svg>