<svg xmlns="http://www.w3.org/2000/svg" viewBox="0 0 256.54 256.54"><title>personal-image</title><g id="Layer_2" data-name="Layer 2"><g id="Layer_1-2" data-name="Layer 1"><rect width="256.54" height="256.54" rx="13.74" style="fill:#ff0d86"/><g id="CIwWAs.tif"><path d="M37.67,148.58V98.34a12.68,12.68,0,0,1,12.9-13H83.48c2.9,0,5.81-.07,8.71,0a30.91,30.91,0,0,1,22.93,10.51,51.06,51.06,0,0,0,4.93,5.14,19.25,19.25,0,0,0,12.07,4.54c5.29.11,10.58.08,15.87.09,12.33,0,24.65,0,37,0,5.08,0,9.06,2.12,11.5,6.63a11.92,11.92,0,0,1,1.42,4.85c.2,4.18.11,8.38.07,12.58a4.43,4.43,0,0,1-4.68,4.46,4.5,4.5,0,0,1-4.61-4.48c0-3.61-.09-7.23,0-10.84.07-2.57-1.53-3.85-3.87-3.85q-25,0-50.05,0a34.34,34.34,0,0,1-8.93-.88,32.09,32.09,0,0,1-11.13-5.37A43,43,0,0,1,108,102a19.11,19.11,0,0,0-10.33-6.37,32.35,32.35,0,0,0-6.78-.85c-13.17-.07-26.33,0-39.5,0a11.27,11.27,0,0,0-1.16,0A3.23,3.23,0,0,0,47,98.16c0,.26,0,.52,0,.78q0,49.67,0,99.33a7.6,7.6,0,0,0,.32,2.17,2.93,2.93,0,0,0,2.79,2,15.11,15.11,0,0,0,1.65,0h80.25a5.44,5.44,0,0,1,4,1.2,4.9,4.9,0,0,1,1.28,5,4.61,4.61,0,0,1-4.21,3.16c-.36,0-.71,0-1.07,0H50.68A12.52,12.52,0,0,1,41,207.66a12.75,12.75,0,0,1-3.29-8.93Q37.69,173.67,37.67,148.58Z" style="fill:#f294cc"/><path d="M209.45,176.34c0,2.45,0,4.91,0,7.36,0,.82.43.82,1,.8a8,8,0,0,1,5.33,1.61,7.13,7.13,0,0,1,3,5.6A120,120,0,0,1,218.6,206c-1,10.15-5.94,18.08-14.52,23.63a30.73,30.73,0,0,1-11.84,4.39,29.57,29.57,0,0,1-11.14-.3,30.83,30.83,0,0,1-16.79-9.82,29,29,0,0,1-7.09-13.81,48.23,48.23,0,0,1-.88-7.18c-.14-3.38-.08-6.77,0-10.16s1.24-5.95,4.32-7.39a11.3,11.3,0,0,1,3.8-.84c1-.09,1.27-.37,1.27-1.33,0-4.74-.12-9.49.15-14.22.48-8.2,4.67-14.18,11.81-18a20.22,20.22,0,0,1,14.92-1.83,21.58,21.58,0,0,1,14.73,12,23.29,23.29,0,0,1,2.15,9.92c0,1.74,0,3.48,0,5.22Zm-21.87,8.16h11.13c1.4,0,1.39,0,1.39-1.36,0-3.87.09-7.74,0-11.61a19.63,19.63,0,0,0-.93-5.56,12.31,12.31,0,0,0-17.51-6.47c-3.63,2-6,5.08-6.31,9.24-.31,4.82-.15,9.67-.18,14.5,0,1.22,0,1.26,1.24,1.26Zm4.6,22c0-1.35,0-2.71,0-4.06a4.56,4.56,0,0,0-4.53-4.38,4.65,4.65,0,0,0-4.73,4.32c-.09,2.74-.09,5.49,0,8.23a4.49,4.49,0,0,0,4.72,4.25,4.41,4.41,0,0,0,4.55-4.29C192.22,209.2,192.18,207.85,192.18,206.49Z" style="fill:#fff"/><path d="M136,47.92q-30.74,0-61.47,0a11.81,11.81,0,0,0-7,1.81,10.66,10.66,0,0,0-4.87,9c-.1,3.58-.11,7.17,0,10.75a4.7,4.7,0,0,1-6.29,4.7,4.51,4.51,0,0,1-3-3.79c0-4.58-.38-9.21.11-13.74.82-7.51,4.87-13,11.78-16.26a20.52,20.52,0,0,1,9-1.78q61.81,0,123.61,0a20.16,20.16,0,0,1,16.6,7.76,20.38,20.38,0,0,1,4.28,11.09c.07.71.07,1.42.07,2.13q0,38.48,0,77c0,1.91-.43,3.59-2.1,4.71a4.43,4.43,0,0,1-4.85.27,4.19,4.19,0,0,1-2.37-3.62c0-.71,0-1.42,0-2.13V59.63c0-3.87-1.24-7.14-4.38-9.54A9.91,9.91,0,0,0,199.39,48c-.81,0-1.62,0-2.42,0Z" style="fill:#f294cc"/></g></g></g></svg>