<svg xmlns="http://www.w3.org/2000/svg" viewBox="0 0 466.44 466.44"><title>resume-image</title><g id="Layer_2" data-name="Layer 2"><g id="Layer_1-2" data-name="Layer 1"><rect width="466.44" height="466.44" rx="27.85" style="fill:#ff0d86"/><path d="M139.88,328.52H0V304.84H139.83V269.5L187,316.66l-47.1,47.11Z" style="fill:#f294cc"/><path d="M258.69,245.28H187.61c-.07-.09-.17-.16-.17-.23,0-4.51-.1-9,0-13.54.14-5,2.82-8.74,6.5-11.85a40.54,40.54,0,0,1,13.86-7.25c5.41-1.76,10.94-3.07,16.66-2.68,10,.69,19.28,3.46,27.3,9.66a16.55,16.55,0,0,1,6.48,9.35,13.24,13.24,0,0,1,.41,2.86C258.71,236.11,258.69,240.62,258.69,245.28Z" style="fill:#f294cc"/><path d="M223,150.24A23.77,23.77,0,1,1,199.29,174,23.85,23.85,0,0,1,223,150.24Z" style="fill:#f294cc"/><path d="M151.3,249.39V130.52a17.91,17.91,0,0,1,17.91-17.9H299.75a17.9,17.9,0,0,1,17.9,17.9V312.33a17.9,17.9,0,0,1-17.9,17.91H207.89" style="fill:none;stroke:#fff;stroke-miterlimit:10;stroke-width:8px"/></g></g></svg>